<?xml version="1.0" encoding="UTF-8"?>
<svg width="72px" height="70px" viewBox="0 0 72 70" version="1.1" xmlns="http://www.w3.org/2000/svg" xmlns:xlink="http://www.w3.org/1999/xlink">
    <!-- Generator: Sketch 54.1 (76490) - https://sketchapp.com -->
    <title>noun_Folder_3275853</title>
    <desc>Created with Sketch.</desc>
    <g id="Page-1" stroke="none" stroke-width="1" fill="none" fill-rule="evenodd">
        <g id="noun_Folder_3275853" fill="#000000" fill-rule="nonzero">
            <path d="M70.23779,16.83789 L64.62207,16.83789 L64.62207,9.25684 C64.62207,8.70411 64.17432,8.25684 63.62207,8.25684 L36.87305,8.25684 L32.17139,1.42774 C31.98487,1.15723 31.67676,0.99512 31.34766,0.99512 L14.86719,0.99512 C14.31494,0.99512 13.86719,1.44239 13.86719,1.99512 L13.86719,8.25684 L1.76221,8.25684 C1.20996,8.25684 0.76221,8.70411 0.76221,9.25684 L0.76221,64.79786 C0.76221,67.1172 2.64893,69.00489 4.96826,69.00489 L67.03174,69.00489 C69.35108,69.00489 71.23779,67.11719 71.23779,64.79786 L71.23779,17.83789 C71.23779,17.28516 70.79004,16.83789 70.23779,16.83789 Z M7.17432,17.83789 L7.17432,64.79785 C7.17432,66.01465 6.18457,67.00488 4.96827,67.00488 C3.75197,67.00488 2.76222,66.01465 2.76222,64.79785 L2.76222,10.25684 L14.8672,10.25684 C15.41945,10.25684 15.8672,9.80957 15.8672,9.25684 L15.8672,2.99512 L30.82228,2.99512 L35.52394,9.82422 C35.71046,10.09473 36.01857,10.25684 36.34767,10.25684 L62.62208,10.25684 L62.62208,16.83789 L8.17432,16.83789 C7.62207,16.83789 7.17432,17.28516 7.17432,17.83789 Z M69.23779,64.79785 C69.23779,66.01465 68.24804,67.00488 67.03174,67.00488 L8.54785,67.00488 C8.94482,66.36328 9.17431,65.60644 9.17431,64.79785 L9.17431,18.83789 L69.23779,18.83789 L69.23779,64.79785 Z" id="Shape"></path>
        </g>
    </g>
</svg>