<?xml version="1.0" encoding="UTF-8"?>
<svg width="20px" height="20px" viewBox="0 0 20 20" version="1.1" xmlns="http://www.w3.org/2000/svg" xmlns:xlink="http://www.w3.org/1999/xlink">
    <!-- Generator: Sketch 54.1 (76490) - https://sketchapp.com -->
    <title>cancel-24px</title>
    <desc>Created with Sketch.</desc>
    <g id="Page-1" stroke="none" stroke-width="1" fill="none" fill-rule="evenodd">
        <g id="Overview-(No-Selection)" transform="translate(-361.000000, -928.000000)">
            <g id="cancel-24px" transform="translate(359.000000, 926.000000)">
                <path d="M12,2 C6.47,2 2,6.47 2,12 C2,17.53 6.47,22 12,22 C17.53,22 22,17.53 22,12 C22,6.47 17.53,2 12,2 Z M17,15.59 L15.59,17 L12,13.41 L8.41,17 L7,15.59 L10.59,12 L7,8.41 L8.41,7 L12,10.59 L15.59,7 L17,8.41 L13.41,12 L17,15.59 Z" id="Shape" fill="#BC4747" fill-rule="nonzero"></path>
                <polygon id="Path" points="0 0 24 0 24 24 0 24"></polygon>
            </g>
        </g>
    </g>
</svg>