<?xml version="1.0" encoding="UTF-8"?>
<svg width="20px" height="20px" viewBox="0 0 20 20" version="1.1" xmlns="http://www.w3.org/2000/svg" xmlns:xlink="http://www.w3.org/1999/xlink">
    <!-- Generator: Sketch 54.1 (76490) - https://sketchapp.com -->
    <title>info-24px</title>
    <desc>Created with Sketch.</desc>
    <g id="Page-1" stroke="none" stroke-width="1" fill="none" fill-rule="evenodd">
        <g id="Overview-(No-Selection)" transform="translate(-335.000000, -928.000000)">
            <g id="info-24px" transform="translate(333.000000, 926.000000)">
                <polygon id="Path" points="0 0 24 0 24 24 0 24"></polygon>
                <path d="M12,2 C6.48,2 2,6.48 2,12 C2,17.52 6.48,22 12,22 C17.52,22 22,17.52 22,12 C22,6.48 17.52,2 12,2 Z M13,17 L11,17 L11,11 L13,11 L13,17 Z M13,9 L11,9 L11,7 L13,7 L13,9 Z" id="Shape" fill="#4777BB" fill-rule="nonzero"></path>
            </g>
        </g>
    </g>
</svg>