<?xml version="1.0" encoding="UTF-8"?>
<svg width="24px" height="24px" viewBox="0 0 24 24" version="1.1" xmlns="http://www.w3.org/2000/svg" xmlns:xlink="http://www.w3.org/1999/xlink">
    <!-- Generator: Sketch 54.1 (76490) - https://sketchapp.com -->
    <title>noun_server error_1875755</title>
    <desc>Created with Sketch.</desc>
    <g id="Page-1" stroke="none" stroke-width="1" fill="none" fill-rule="evenodd">
        <g id="Overview-(No-Selection)" transform="translate(-364.000000, -958.000000)" fill="#BC4747" fill-rule="nonzero">
            <g id="noun_server-error_1875755" transform="translate(364.000000, 958.000000)">
                <g id="Group">
                    <rect id="Rectangle" x="2.7375" y="12.075" width="8.4" height="1.5"></rect>
                    <path d="M6.9375,16.3125 C5.5875,16.3125 4.4625,17.4375 4.4625,18.7875 C4.4625,20.1375 5.5875,21.2625 6.9375,21.2625 C8.2875,21.2625 9.4125,20.1375 9.4125,18.7875 C9.45,17.4 8.325,16.3125 6.9375,16.3125 Z" id="Path"></path>
                    <rect id="Rectangle" x="2.7375" y="7.65" width="8.4" height="1.5"></rect>
                    <path d="M11.025,22.275 C10.725,21.75 10.725,21.1125 11.025,20.5875 L13.875,15.675 L13.875,2.0625 C13.875,1.95 13.875,1.8375 13.8375,1.725 C13.725,0.75 12.8625,0 11.8125,0 L2.0625,0 C0.9375,0 0,0.9375 0,2.0625 L0,23.625 C0,23.8125 0.1875,24 0.375,24 L13.5,24 C13.6875,24 13.875,23.8125 13.875,23.625 L13.875,23.1375 L12.45,23.1375 C11.8875,23.1375 11.325,22.8 11.025,22.275 Z M1.9875,2.85 C1.9875,2.6625 2.1375,2.475 2.3625,2.475 L11.5125,2.475 C11.7,2.475 11.8875,2.6625 11.8875,2.85 L11.8875,5.1 C11.8875,5.325 11.7,5.475 11.5125,5.475 L2.3625,5.475 C2.1375,5.475 1.9875,5.325 1.9875,5.1 L1.9875,2.85 Z M1.9875,7.275 C1.9875,7.05 2.1375,6.9 2.3625,6.9 L11.5125,6.9 C11.7,6.9 11.8875,7.05 11.8875,7.275 L11.8875,9.525 C11.8875,9.7125 11.7,9.9 11.5125,9.9 L2.3625,9.9 C2.1375,9.9 1.9875,9.7125 1.9875,9.525 L1.9875,7.275 Z M1.9875,13.95 L1.9875,11.7 C1.9875,11.475 2.1375,11.325 2.3625,11.325 L11.5125,11.325 C11.7,11.325 11.8875,11.475 11.8875,11.7 L11.8875,13.95 C11.8875,14.175 11.7,14.325 11.5125,14.325 L2.3625,14.325 C2.175,14.325 1.9875,14.1375 1.9875,13.95 Z M6.9375,22.0125 C5.1375,22.0125 3.7125,20.55 3.7125,18.7875 C3.7125,17.025 5.175,15.5625 6.9375,15.5625 C8.7,15.5625 10.1625,17.025 10.1625,18.7875 C10.1625,20.55 8.7375,22.0125 6.9375,22.0125 Z" id="Shape"></path>
                    <rect id="Rectangle" x="2.7375" y="3.2625" width="8.4" height="1.5"></rect>
                    <path d="M18.4125,12.075 C18.2625,11.8125 17.9625,11.625 17.625,11.625 C17.2875,11.625 16.9875,11.8125 16.8375,12.075 L11.6625,21 C11.475,21.3 11.475,21.6375 11.6625,21.9375 C11.8125,22.2375 12.1125,22.3875 12.45,22.3875 L22.725,22.3875 C23.0625,22.3875 23.3625,22.2 23.5125,21.9375 C23.6625,21.6375 23.6625,21.3 23.5125,21 L18.4125,12.075 Z M18,20.1 C18,20.325 17.85,20.475 17.625,20.475 C17.4,20.475 17.25,20.325 17.25,20.1 L17.25,19.5 C17.25,19.275 17.4,19.125 17.625,19.125 C17.85,19.125 18,19.275 18,19.5 L18,20.1 Z M18,18.1125 C18,18.3375 17.85,18.4875 17.625,18.4875 C17.4,18.4875 17.25,18.3375 17.25,18.1125 L17.25,13.9125 C17.25,13.6875 17.4,13.5375 17.625,13.5375 C17.85,13.5375 18,13.6875 18,13.9125 L18,18.1125 Z" id="Shape"></path>
                    <path d="M20.1,13.5375 L20.4,14.0625 C20.475,13.95 20.475,13.8375 20.4,13.725 C20.3625,13.6125 20.25,13.5375 20.1,13.5375 Z" id="Path"></path>
                    <path d="M20.7,13.5375 C20.775,13.65 20.8875,13.6875 21,13.6875 C21.075,13.6875 21.15,13.65 21.225,13.6125 C21.525,13.3875 21.825,13.125 22.0875,12.8625 C22.2375,12.7125 22.2375,12.4875 22.0875,12.3375 C21.9375,12.1875 21.7125,12.1875 21.5625,12.3375 C21.3375,12.6 21.075,12.825 20.8125,13.0125 C20.625,13.125 20.5875,13.35 20.7,13.5375 Z" id="Path"></path>
                    <path d="M21.7125,3.9 C21.7875,3.975 21.9,4.0125 22.0125,4.0125 C22.0875,4.0125 22.2,3.975 22.275,3.9375 C22.425,3.7875 22.4625,3.5625 22.3125,3.4125 C22.05,3.15 21.75,2.85 21.4875,2.625 C21.3375,2.475 21.075,2.5125 20.9625,2.6625 C20.85,2.8125 20.85,3.075 21,3.1875 C21.2625,3.4125 21.4875,3.675 21.7125,3.9 Z" id="Path"></path>
                    <path d="M23.1,6.6375 C23.175,6.975 23.2125,7.3125 23.25,7.65 C23.25,7.8375 23.4375,7.9875 23.625,7.9875 L23.625,7.9875 C23.85,7.9875 24,7.8 23.9625,7.575 C23.925,7.2 23.8875,6.825 23.8125,6.45 C23.775,6.2625 23.55,6.1125 23.3625,6.15 C23.175,6.225 23.0625,6.4125 23.1,6.6375 Z" id="Path"></path>
                    <path d="M15.1125,2.025 C15.15,2.025 15.1875,2.025 15.225,2.025 C15.5625,1.9125 15.9,1.8375 16.2375,1.8 C16.425,1.7625 16.575,1.575 16.575,1.3875 C16.5,1.2 16.3125,1.05 16.125,1.0875 C15.75,1.125 15.375,1.2 15,1.3125 C14.8125,1.3875 14.7,1.575 14.7375,1.7625 C14.775,1.9125 14.925,2.025 15.1125,2.025 Z" id="Path"></path>
                    <path d="M22.6875,10.65 C22.5375,10.95 22.3875,11.25 22.2,11.55 C22.0875,11.7 22.125,11.9625 22.3125,12.075 C22.3875,12.1125 22.4625,12.15 22.5375,12.15 C22.65,12.15 22.7625,12.075 22.8375,12 C23.0625,11.7 23.25,11.3625 23.4,10.9875 C23.475,10.8 23.4,10.575 23.2125,10.5 C22.9875,10.35 22.7625,10.4625 22.6875,10.65 Z" id="Path"></path>
                    <path d="M22.3125,4.725 C22.5,5.025 22.65,5.325 22.7625,5.625 C22.8375,5.775 22.95,5.85 23.1,5.85 C23.1375,5.85 23.2125,5.85 23.25,5.8125 C23.4375,5.7375 23.55,5.5125 23.4375,5.325 C23.2875,4.9875 23.1375,4.6125 22.9125,4.3125 C22.8,4.125 22.575,4.0875 22.3875,4.2 C22.275,4.35 22.2375,4.575 22.3125,4.725 Z" id="Path"></path>
                    <path d="M17.25,1.7625 C17.5875,1.7625 17.925,1.8 18.2625,1.875 C18.3,1.875 18.3,1.875 18.3375,1.875 C18.525,1.875 18.675,1.7625 18.7125,1.575 C18.75,1.3875 18.6375,1.1625 18.4125,1.125 C18.0375,1.05 17.6625,1.0125 17.2875,0.975 C17.1,0.975 16.9125,1.125 16.9125,1.35 C16.875,1.575 17.025,1.7625 17.25,1.7625 Z" id="Path"></path>
                    <path d="M23.625,8.325 C23.4,8.325 23.25,8.475 23.2125,8.6625 C23.175,9 23.1,9.3375 23.025,9.675 C22.9875,9.8625 23.1,10.0875 23.2875,10.125 C23.325,10.125 23.3625,10.125 23.4,10.125 C23.55,10.125 23.7,10.0125 23.775,9.8625 C23.8875,9.4875 23.9625,9.1125 24,8.7375 C24,8.55 23.85,8.3625 23.625,8.325 Z" id="Path"></path>
                    <path d="M19.2375,2.175 C19.5375,2.2875 19.875,2.4375 20.1375,2.625 C20.2125,2.6625 20.25,2.6625 20.325,2.6625 C20.4375,2.6625 20.5875,2.5875 20.6625,2.475 C20.775,2.2875 20.7,2.0625 20.5125,1.95 C20.175,1.7625 19.8375,1.575 19.4625,1.4625 C19.275,1.3875 19.05,1.5 18.975,1.6875 C18.9375,1.875 19.05,2.1 19.2375,2.175 Z" id="Path"></path>
                </g>
            </g>
        </g>
    </g>
</svg>