<?xml version="1.0" encoding="UTF-8"?>
<svg width="34px" height="34px" viewBox="0 0 34 34" version="1.1" xmlns="http://www.w3.org/2000/svg" xmlns:xlink="http://www.w3.org/1999/xlink">
    <!-- Generator: Sketch 54.1 (76490) - https://sketchapp.com -->
    <title>Path</title>
    <desc>Created with Sketch.</desc>
    <g id="Symbols" stroke="none" stroke-width="1" fill="none" fill-rule="evenodd">
        <g id="Actions-Bar" transform="translate(-401.000000, -38.000000)" fill="#F6F5F5" fill-rule="nonzero">
            <g id="Group" transform="translate(366.000000, 25.000000)">
                <g id="clear-24px" transform="translate(22.000000, 0.000000)">
                    <path d="M45.75,14.275 C44.775,13.3 43.2,13.3 42.225,14.275 L30,26.475 L17.775,14.25 C16.8,13.275 15.225,13.275 14.25,14.25 C13.275,15.225 13.275,16.8 14.25,17.775 L26.475,30 L14.25,42.225 C13.275,43.2 13.275,44.775 14.25,45.75 C15.225,46.725 16.8,46.725 17.775,45.75 L30,33.525 L42.225,45.75 C43.2,46.725 44.775,46.725 45.75,45.75 C46.725,44.775 46.725,43.2 45.75,42.225 L33.525,30 L45.75,17.775 C46.7,16.825 46.7,15.225 45.75,14.275 Z" id="Path"></path>
                </g>
            </g>
        </g>
    </g>
</svg>