<?xml version="1.0" encoding="UTF-8"?>
<svg width="46px" height="46px" viewBox="0 0 46 46" version="1.1" xmlns="http://www.w3.org/2000/svg" xmlns:xlink="http://www.w3.org/1999/xlink">
    <!-- Generator: Sketch 54.1 (76490) - https://sketchapp.com -->
    <title>memory-24px</title>
    <desc>Created with Sketch.</desc>
    <g id="Symbols" stroke="none" stroke-width="1" fill="none" fill-rule="evenodd">
        <g id="Memory-Card" transform="translate(-92.000000, -27.000000)">
            <g id="Group">
                <g id="memory-24px" transform="translate(85.000000, 20.000000)">
                    <polygon id="Path" points="0 0 60 0 60 60 0 60"></polygon>
                    <path d="M37.5,22.5 L22.5,22.5 L22.5,37.5 L37.5,37.5 L37.5,22.5 Z M32.5,32.5 L27.5,32.5 L27.5,27.5 L32.5,27.5 L32.5,32.5 Z M52.5,27.5 L52.5,22.5 L47.5,22.5 L47.5,17.5 C47.5,14.75 45.25,12.5 42.5,12.5 L37.5,12.5 L37.5,7.5 L32.5,7.5 L32.5,12.5 L27.5,12.5 L27.5,7.5 L22.5,7.5 L22.5,12.5 L17.5,12.5 C14.75,12.5 12.5,14.75 12.5,17.5 L12.5,22.5 L7.5,22.5 L7.5,27.5 L12.5,27.5 L12.5,32.5 L7.5,32.5 L7.5,37.5 L12.5,37.5 L12.5,42.5 C12.5,45.25 14.75,47.5 17.5,47.5 L22.5,47.5 L22.5,52.5 L27.5,52.5 L27.5,47.5 L32.5,47.5 L32.5,52.5 L37.5,52.5 L37.5,47.5 L42.5,47.5 C45.25,47.5 47.5,45.25 47.5,42.5 L47.5,37.5 L52.5,37.5 L52.5,32.5 L47.5,32.5 L47.5,27.5 L52.5,27.5 Z M42.5,42.5 L17.5,42.5 L17.5,17.5 L42.5,17.5 L42.5,42.5 Z" id="Shape" fill="#F6F5F5" fill-rule="nonzero"></path>
                </g>
            </g>
        </g>
    </g>
</svg>