<?xml version="1.0" encoding="UTF-8"?>
<svg width="92px" height="92px" viewBox="0 0 92 92" version="1.1" xmlns="http://www.w3.org/2000/svg" xmlns:xlink="http://www.w3.org/1999/xlink">
    <!-- Generator: Sketch 54.1 (76490) - https://sketchapp.com -->
    <title>website_icon</title>
    <desc>Created with Sketch.</desc>
    <g id="Page-1" stroke="none" stroke-width="1" fill="none" fill-rule="evenodd">
        <g id="website_icon" fill="#FFFFFF" fill-rule="nonzero">
            <path d="M80.36,76.54 C95.8542982,59.1685467 95.8843885,32.9469682 80.43,15.54 C80.3438488,15.4181031 80.2467817,15.3043003 80.14,15.2 C71.4298719,5.52492981 59.0231917,0.000549539505 46.005,0.000549539505 C32.9868083,0.000549539505 20.5801281,5.52492981 11.87,15.2 C11.7574346,15.3015945 11.6567879,15.4156607 11.57,15.54 C-3.8569251,32.9167173 -3.8569251,59.0832827 11.57,76.46 C11.6561512,76.5818969 11.7532183,76.6956997 11.86,76.8 C20.5719428,86.4755463 32.9802402,92.0000586 46,92.0000586 C59.0197598,92.0000586 71.4280572,86.4755463 80.14,76.8 C80.2186349,76.7179621 80.2921091,76.631129 80.36,76.54 Z M4.05,48 L22,48 C22.1106436,54.9637662 23.1189608,61.8841837 25,68.59 C21.0939283,69.5906497 17.3058085,71.005328 13.7,72.81 C7.86295519,65.8141512 4.47402883,57.1012742 4.05,48 L4.05,48 Z M13.7,19.19 C17.3058085,20.994672 21.0939283,22.4093503 25,23.41 C23.1189608,30.1158163 22.1106436,37.0362338 22,44 L4,44 C4.43817587,34.8928284 7.84491086,26.1793135 13.7,19.19 L13.7,19.19 Z M88,44 L70,44 C69.8893564,37.0362338 68.8810392,30.1158163 67,23.41 C70.9060717,22.4093503 74.6941915,20.994672 78.3,19.19 C84.1550891,26.1793135 87.5618241,34.8928284 88,44 Z M44,22 C39.3795319,21.9155537 34.7753108,21.4270244 30.24,20.54 C33.54,11.61 38.48,5.43 44,4.22 L44,22 Z M29,24.33 C33.9395404,25.3370319 38.9599256,25.8959681 44,26 L44,44 L26,44 C26.1367827,37.3404628 27.1453633,30.7275361 29,24.33 L29,24.33 Z M44,48 L44,66 C38.960835,66.0941516 33.9404587,66.6430461 29,67.64 C27.1479496,61.2521397 26.1393948,54.6494676 26,48 L44,48 Z M44,70 L44,87.78 C38.48,86.57 33.54,80.39 30.24,71.49 C34.7744218,70.5929021 39.378651,70.0943337 44,70 L44,70 Z M48,70 C52.6204681,70.0844463 57.2246892,70.5729756 61.76,71.46 C58.46,80.36 53.52,86.54 48,87.75 L48,70 Z M63,67.64 C58.0595413,66.6430461 53.039165,66.0941516 48,66 L48,48 L66,48 C65.8632173,54.6595372 64.8546367,61.2724639 63,67.67 L63,67.64 Z M48,44 L48,26 C53.039165,25.9058484 58.0595413,25.3569539 63,24.36 C64.8520504,30.7478603 65.8606052,37.3505324 66,44 L48,44 Z M48,22 L48,4.22 C53.52,5.43 58.46,11.61 61.76,20.51 C57.2255782,21.4070979 52.621349,21.9056663 48,22 L48,22 Z M65.76,19.62 C64.0613865,14.4673026 61.3213029,9.71895906 57.71,5.67 C64.4094928,7.62298904 70.5167871,11.2145042 75.48,16.12 C72.3577537,17.5832177 69.1030014,18.7451509 65.76,19.59 L65.76,19.62 Z M26.24,19.62 C22.8969986,18.7751509 19.6422463,17.6132177 16.52,16.15 C21.4799172,11.2336176 27.5874918,7.63162647 34.29,5.67 C30.6822323,9.7101354 27.9423356,14.4479444 26.24,19.59 L26.24,19.62 Z M26.24,72.44 C27.9423356,77.5820556 30.6822323,82.3198646 34.29,86.36 C27.5874918,84.3983735 21.4799172,80.7963824 16.52,75.88 C19.6422463,74.4167823 22.8969986,73.2548491 26.24,72.41 L26.24,72.44 Z M65.76,72.44 C69.1030014,73.2848491 72.3577537,74.4467823 75.48,75.91 C70.5134971,80.8046109 64.4064824,84.3856516 57.71,86.33 C61.3177677,82.2898646 64.0576644,77.5520556 65.76,72.41 L65.76,72.44 Z M67,68.59 C68.8810392,61.8841837 69.8893564,54.9637662 70,48 L88,48 C87.5618241,57.1071716 84.1550891,65.8206865 78.3,72.81 C74.6941915,71.005328 70.9060717,69.5906497 67,68.59 Z" id="Shape"></path>
        </g>
    </g>
</svg>