<svg id="Camada_1" data-name="Camada 1" xmlns="http://www.w3.org/2000/svg" viewBox="0 0 71 89"><defs><style>.cls-1{fill:#fff;}</style></defs><path class="cls-1" d="M62.15,85.35h-53a6,6,0,0,1-6-6V8.58a6,6,0,0,1,6-6H46.7c3.31,0,21.44,17.47,21.44,20.77v56A6,6,0,0,1,62.15,85.35Z"/><g id="Page-1"><g id="file_icon" data-name="file icon"><path id="Shape" d="M49.33.5H6.5a6,6,0,0,0-6,6v76a6,6,0,0,0,6,6h58a6,6,0,0,0,6-6V21.67ZM48.5,5.33,65.67,22.5H50.5a2,2,0,0,1-2-2Zm16,79.17H6.5a2,2,0,0,1-2-2V6.5a2,2,0,0,1,2-2h38v16a6,6,0,0,0,6,6h16v56A2,2,0,0,1,64.5,84.5Z"/></g></g></svg>