<?xml version="1.0" encoding="UTF-8"?>
<svg width="94px" height="94px" viewBox="0 0 94 94" version="1.1" xmlns="http://www.w3.org/2000/svg" xmlns:xlink="http://www.w3.org/1999/xlink">
    <!-- Generator: Sketch 54.1 (76490) - https://sketchapp.com -->
    <title>noun_protect_2374396</title>
    <desc>Created with Sketch.</desc>
    <g id="Page-1" stroke="none" stroke-width="1" fill="none" fill-rule="evenodd">
        <g id="noun_protect_2374396" fill="#51B261">
            <path d="M56.87,88.86 C54.284,89.456 51.65,89.817 49,89.94 L49,72.84 C50.33,72.84 51.66,72.96 53,73.1 C53.068,73.107 53.137,73.11 53.205,73.11 C54.308,73.11 55.215,72.203 55.215,71.1 C55.215,70.074 54.43,69.205 53.41,69.1 C51.96,68.95 50.5,68.87 49.03,68.82 L49.03,49 L71.3,49 C71.42,49.01 71.54,49.01 71.66,49 C72.757,49 73.66,48.097 73.66,47 C73.685,38.177 72.147,29.418 69.12,21.13 C72.117,19.992 75.023,18.625 77.81,17.04 C85.629,25.047 90.008,35.808 89.9999987,47 C90,48.097 90.903,49 91.9999987,49 C93.097,49 94,48.097 93.9999987,47 C94,34.31 88.847,22.148 79.73,13.32 C79.6,13.151 79.445,13.003 79.27,12.88 C73.311,7.236 65.977,3.25 58,1.32 C57.861,1.271 57.716,1.238 57.57,1.22 C54.131,0.417 50.612,0.008 47.08,0 L46.92,0 C43.385,0.004 39.863,0.41 36.42,1.21 C36.274,1.228 36.129,1.261 35.99,1.31 C28.017,3.241 20.688,7.231 14.74,12.88 C14.556,13.002 14.394,13.155 14.26,13.33 C5.146,22.155 -0.003,34.314 -1.3102001e-06,47 C-0.002,59.703 5.163,71.875 14.3,80.7 C14.413,80.84 14.544,80.965 14.69,81.07 C20.677,86.759 28.059,90.771 36.09,92.7 C36.174,92.729 36.261,92.75 36.35,92.76 C39.815,93.575 43.361,93.991 46.92,94 L47.08,94 C50.686,94 54.28,93.584 57.79,92.76 C58.723,92.575 59.401,91.749 59.401,90.798 C59.401,89.701 58.499,88.798 57.401,88.798 C57.222,88.798 57.043,88.822 56.87,88.87 L56.87,88.86 Z M37.87,89 C34.812,84.727 32.23,80.133 30.17,75.3 C34.985,73.836 39.97,73.006 45,72.83 L45,89.94 C42.591,89.832 40.195,89.518 37.84,89 L37.87,89 Z M31.87,87.23 C27.285,85.495 23.03,82.989 19.29,79.82 C21.571,78.585 23.933,77.506 26.36,76.59 C27.916,80.272 29.751,83.829 31.85,87.23 L31.87,87.23 Z M37.84,5 C40.195,4.482 42.591,4.168 45,4.06 L45,21.17 C39.96,20.997 34.965,20.167 30.14,18.7 C32.2,13.867 34.782,9.273 37.84,5 Z M26.34,17.41 C23.913,16.494 21.551,15.415 19.27,14.18 C23.01,11.011 27.265,8.505 31.85,6.77 C29.744,10.171 27.902,13.728 26.34,17.41 Z M56.16,5 C59.219,9.275 61.802,13.873 63.86,18.71 C59.035,20.172 54.039,20.999 49,21.17 L49,4.06 C51.409,4.168 53.805,4.482 56.16,5 Z M45,25.17 L45,45 L24.38,45 C24.574,37.298 26.02,29.678 28.66,22.44 C33.961,24.074 39.456,24.992 45,25.17 Z M45,49 L45,68.83 C39.456,69.008 33.961,69.926 28.66,71.56 C26.02,64.322 24.574,56.702 24.38,49 L45,49 Z M69.62,45 L49,45 L49,25.17 C54.544,24.992 60.039,24.074 65.34,22.44 C67.98,29.678 69.426,37.298 69.62,45 Z M62.15,6.77 C66.737,8.507 70.995,11.013 74.74,14.18 C72.454,15.413 70.089,16.492 67.66,17.41 C66.098,13.728 64.256,10.171 62.15,6.77 Z M16.15,17.05 C18.937,18.635 21.843,20.002 24.84,21.14 C22.068,28.798 20.561,36.857 20.38,45 L4.05,45 C4.536,34.514 8.858,24.563 16.19,17.05 L16.15,17.05 Z M4.05,49 L20.38,49 C20.574,57.145 22.094,65.204 24.88,72.86 C21.881,74.014 18.976,75.398 16.19,77 C8.847,69.474 4.524,59.504 4.05,49 Z" id="Shape"></path>
            <path d="M92,64 C90.903,64 90,64.903 90,66 L90,67.23 C90.01,75.258 85.99,82.778 79.31,87.23 L76.5,89.08 L73.69,87.2 C67.018,82.754 63,75.248 63,67.23 L63,60.43 L65.43,60 C69.368,59.273 72.948,57.239 75.59,54.23 L76.5,53.23 L77.41,54.23 C80.052,57.239 83.632,59.273 87.57,60 L91.64,60.74 C91.759,60.762 91.879,60.773 92,60.773 C93.099,60.773 94.003,59.869 94.003,58.77 C94.003,57.807 93.308,56.973 92.36,56.8 L88.29,56.06 C85.24,55.502 82.466,53.93 80.42,51.6 L78,48.83 C77.612,48.414 77.069,48.177 76.5,48.177 C75.931,48.177 75.388,48.414 75,48.83 L72.58,51.59 C70.534,53.92 67.76,55.492 64.71,56.05 L60.64,56.79 C59.682,56.965 58.984,57.816 59,58.79 L59,67.26 C58.987,76.617 63.677,85.381 71.47,90.56 L75.39,93.18 C76.061,93.627 76.939,93.627 77.61,93.18 L81.53,90.56 C89.332,85.375 94.023,76.598 94,67.23 L94,66 C94,64.903 93.097,64 92,64 Z" id="Path"></path>
            <path d="M82.87,66.58 L75.57,73.87 L73.86,72.16 C73.482,71.779 72.967,71.565 72.43,71.565 C71.324,71.565 70.415,72.474 70.415,73.58 C70.415,74.112 70.625,74.623 71,75 L74.12,78.12 C74.495,78.495 75.004,78.707 75.535,78.707 C76.066,78.707 76.575,78.495 76.95,78.12 L85.7,69.4 C86.032,69.033 86.216,68.555 86.216,68.06 C86.216,66.963 85.313,66.06 84.216,66.06 C83.718,66.06 83.238,66.245 82.87,66.58 Z" id="Path"></path>
        </g>
    </g>
</svg>